<svg id="logo_wektor" data-name="logo wektor" xmlns="http://www.w3.org/2000/svg" viewBox="0 0 1444.9 646.16"><defs><style>.cls-1{fill:red;}</style></defs><title>logo_red_Ai</title><path class="cls-1" d="M42.89,173.54a121.53,121.53,0,0,1,12,20c2.18.9,4.22,1.1,6,0,16.73,19.39,39.1,38,68.33,55.66,0,0,8.94,1,9,1.67.09,1.06,60.18,31.22,61.33,31.33,1.32.13,27.1.58,40,5.67a67.9,67.9,0,0,0,19-10l9.92-8.58c14.5-2.38,13.37,8.37,16.75,20.75,4.22,11.87,11.71,18.5,24.25,17,3.66-2.58,9.56-4.91,17.5-7,3.63-3.68,5.57-8.87,6.75-14.75,4.4-6.11,9.92-5.07,15.75-2A23,23,0,0,1,356,291c3,5.23,6.51,8.72,11.25,8,7.44,4.21,9.94,2.84,10.75-1.5,2.83-10.87,5.66-19.54,8.5-22.5,8.87,8.94,14.62,20.34,17.5,34l18.5,16.75c3.76,9.74-.63,15.62-8.75,19.75h-59c-3.9-.9-7.71-1.44-11,0-12.83,3.81-24.08,10.51-34.5,18.75.44,2.55,1.75,4.85,1.25,7.25-3.79-.69-5.19,1.2-5.75,4a147.81,147.81,0,0,0,0,40.25c.95,5.76,3.74,9.55,8.25,11.5-1.38,18.87,5.75,26,5.75,26,2.16,6.1,3.45,9.93,8.5,7.25a4.19,4.19,0,0,1,.25,3.5c1.06-.81,2.37-.53,3.75,0-.7,5.84-10.26,8-16.75,11.5-9,5.07-14.31,12.37-6.75,10.75-2.07,3.46-3.59,7-2.75,10.75-3.58,3.7-10,7.71-16.5,11.75a23.87,23.87,0,0,0-1,11.75c-6.2.48-11.6,2.48-15.5,7.25-6.93,6.16-12.66,12.43-15.25,19a87,87,0,0,0-17.25,18c1.37,2.42,2.58,4.75,2.25,6.25-.56,1.38-5.52,1-10,.83-9.8,10-12.68,9.54-15.83,9.5a12.21,12.21,0,0,1,4-8.17,10.51,10.51,0,0,1-2.5-6.33c4.42-3.54,9-8.49,13.5-13.67a14.4,14.4,0,0,0,.66-6.66c2.32-2.47,6.12-11.18,9.5-18.17,2.46-8.4,4.76-19.66,7-31.83,3.1-12.29,11.25-36.66,17.34-59.5.48-6.71-.84-17.42-2.34-28.5l-7.5-24.84c-5.63-3.93-10-8.41-12.66-13.66-10.66-2.05-21-17.65-31.34-31.5-13.22-12.42-26.39-23.05-39.5-31.17-6.14-7.17-12.79-11.05-20-11.33L78.72,231c-8-7.06-16.16-12.64-24.67-15.17-6.58-4.33-11.16-3.83-13.16-2.5-2.07.93-8.22-5.26-13.34-9.67,1.26-2.11,3.41-2.89,6-3,2.92-1.26,2.36-3.67.5-6.5-3.43-3.65-5.68-7.22-6.5-10.66,3.55,2.78,7.34,8.25,11.67,9.16,5.27,4.27,6,2.51,4.5-2.83-2.45-3.45-3.21-9.7-4.83-16.33C39.38,172.91,40.72,172.62,42.89,173.54Z" transform="translate(-27.55 -45.95)"/><path class="cls-1" d="M646.84,478.79l-4.12-11a33.38,33.38,0,0,1-2.13-16.25c2.13-7.31,1.82-9.72-1.87-14.88-3.05-3.14-3.65-12.14-2.63-25a620,620,0,0,0,6.63-81.12,366.13,366.13,0,0,0-3.88-46.13,401.21,401.21,0,0,0-9.75-56.87c-1.74-12.23-6.58-24.2-13.5-36-5.38-8.67-9.49-17.37-11.5-26.13-.29-8.45-2.29-18.26-5-28.62-.69-6.16-3-10.63-15.87-13.13-4.27-3.57-2.74-5.46,0-7-2.27-5.42-7.1-9.4-15.25-11.5-8.28-1.81-16.22-3.19-21.75-1.5-10.68-.08-20.47-2.11-29-6.87A57.57,57.57,0,0,0,501.34,90c-9.12-1.67-10,.16-3.87,5,4.14,7.1,8.71,13.09,14.12,16.87,9.8,4,19,8.34,23,14.88,7.12,6.36,13.24,12.51,16.63,18.12,4.06,11.26,5.5,22.69-2.63,34.75-8.76,6.33-17.54,7.46-26.37.5l-10.88-11.87c-3.16-3-6.5-3.68-10.12-.75-5.81,1.81-13.31.86-21.75-1.63l-8.75-5c-8.59-2.88-10.83-1-6.88,5.63l7.75,6.41c14.49,10.86,27.66,21.82,34.38,33.34,5,7.87,3.8,10.5-3.38,8A11.52,11.52,0,0,0,492,215.41c-1.78,1.67-4.66,2.63-9,2.63-3.57-.38-6.2,1.25-7.25,6.25.38,5.1-1.53,3.86-4.25.37l-5.25-6.75c-5.38-3-8.88-9.25-17.25-17.87-12.5-3.9-19.84-1.37-16.25,14.75,2.9,5.27,9.89,11.81,18.62,18.87,8.59,9.41,17.21,18.82,16.63,27.88-3.79-.8-8.62,2.29-14.63,9.75q-4.74,5-11,0a147.39,147.39,0,0,0-21.5-17.38c-9.63-2.51-16.6-1.34-16.12,10.13,9.62,17.25,17,25.94,27.5,45.75,3,6.37,4.75,13.61,2.12,23.62-1.52,4-5,9.65-9.62,16.25-.27,3.14-.26,5.6.37,6.5-10.34,17.49-26.29,35.49-46.37,53.88a212.11,212.11,0,0,0-27.13,25.5c-4.87,5.35-8.19,10.93-9,16.87,1.13,1.78,2.67,2.69,5.13,1.75l7.12-5a9,9,0,0,1,6-.5c-1.79,1.43-3.24,3-3.25,4.88,2.42,2.69,4.91,4.24,7.5,3.87v-4.75a3.91,3.91,0,0,0,4.5.88,94.43,94.43,0,0,1,24.88-12.63c23.5-.37,42.31,1.21,51.25-.87a10.71,10.71,0,0,1,3.25-8.75c-2.62-2.23-7.67-4-13.38-5.63-8.48-5.45-11.32-13.91-5-27.25l19.75-23a20.7,20.7,0,0,1,12.75-8.75l5.25-5.25c4.8-2.52,9.59-2.19,14.38,1.13,6.12,1.87,14.71,1.49,28.87,1.5l38.25,8.87c2.92,1.33,6.1.73,9.38-.5,2.5-3.56,6-1.79,9.5.38,4.81,3.89,8.68,2.49,12.25-.5,6.64-3.26,12.48-3.5,15.87,5.5l2.5,20.75c-.82,8.68-3.51,16.33-10.5,21.62-7,4.76-13.75,5.95-19.87.63-3.1-2.07-6.23-1.31-9.38.37L549.22,427c-4.12,3-3.46,5.16.87,6.75,2.79,2.22,1.61,3-2.62,2.75-5.55.76-7.35,3.23-7.13,6.62l15.75,1.5c.55,6.11,3.47,9.88,10.75,9.38a123.4,123.4,0,0,1,34.75,11.87,102.89,102.89,0,0,0,20.5,4.63c5.57,3.14,9.65,3.82,12.75,2.87-1.87-5.87-8.62-4-11.87-5.87,2.13-5.39,5.28-8.43,15.37,4.62a17.28,17.28,0,0,0,4.25,9.25C647.74,485.69,648.2,483.49,646.84,478.79ZM597.55,309c-1.71,7-5.77,12-13.16,14.16-3.35,1.33-6.42,2.77-6.34,5.5.63,2.37-1.1,3.38-4.66,3.34-5.41-.39-8.61-1.67-10-3.67-3.8-5.36-23.52-2.29-40.5-.67-11.44.78-18.34.25-23.34-.83-4.6-1.09-4.7-3-2.16-5.5a10.82,10.82,0,0,0,2.66-9.5c.91-6.1,5.44-9.49,11.17-12a27.49,27.49,0,0,0,10.33-13.3c2.64-6.58,5.91-12.09,10-16.2l20-18.5c6.42-3.86,9.71-8.35,10.5-13.33l6.5-8.67c9-7.35,16.87-4.8,23.34,9.83a259.47,259.47,0,0,0,10,37.17A64,64,0,0,1,597.55,309Z" transform="translate(-27.55 -45.95)"/><path class="cls-1" d="M1116.05,524.87c-4.41-2.45-7.14,2.23-12.33,5.17-5.94,1.62-10.39,5.13-14,10.33a17.09,17.09,0,0,1-14.17,7.17,19.31,19.31,0,0,0-12.16,1.16c-3.57,1.51-6.23.93-8.17-1.33.12-2.72-1.13-3.31-2.83-3.17-2.53.16-4.89.15-6.5-.66-7-3-11.49-7.27-16-11.5-3.15-2.18-8-2.37-13.67-1.5-3.37,1.33-3.8-.5-2.83-3.84a263.77,263.77,0,0,0,4.83-35.33l4.67-37.5c1.06-3.5,2.4-6.36,4.5-7.5,3.41-2.69,4.42-2,4,.67-.69,4.74,2.4,3.21,7-.84,7.3-8.09,14.72-13.58,22.33-15.5,5.24-1.16,3.87-3.23,4.67-6,2.51-8.37,4.33-13.29,7.5-14.5,4.71-5.21,6-10.73,6.5-16.33a13.22,13.22,0,0,1,5.66-7.67c5.87-4.22,11.84-8.48,11.17-9.83,5.51-7.52,3.22-8.41-4.33-4.83-3.61,1.28-4.74,0-3.84-3.34a9,9,0,0,1,6-7.5c6.38-1,11.76-2,13.17-3.16,5.2-3.26,4-5.1-1.5-6-4.41,1-11.94.87-16.83,1.66-4.58,2.38-3.49-.8-1-5.33.86-6.65-4.23-3.67-10.67,1.5a76.57,76.57,0,0,1-13,11.33,105.11,105.11,0,0,1-16.33,12.17c-6.79,6-13.66,10.95-20.67,14.33-7.94,2.1-12.7,7.23-17.5,12.34-2.81,1.51-4.12,1-2.67-3,.76-2,1.57-3.9,3.17-3.84,3.63.2,3.75-.48,3.33-3,1-4.06,1.13-6.76.5-8.33.05-8,3.07-24.81,5.5-39.83l7.84-37.57c3.41-9.66,6.74-26.8,11.66-41.77l9.84-17.5c3.32-5.24.34-6.3-4.17-6.33-5.69.3-10.58-5.49-15.17-13.5-4.71-9.32-12.74-18.66-21.83-28-6.12-3.47-5.45-1.77-2.5,1.67l6,7.66,23.67,30.5c4.89,6.59-2,8.71-3.67,1.34-5.25-10.11-17.73-25.59-30.33-41.17-4-1.31-5.42-.59-3.5,2.67,3.08,3.25.64,4.12-3.5.33-3.21-1.15-6.18-.41-9,1.5-6.08,3.31-9.58,1.25-12.5-2-5.25-5.36-10.66-10.85-12.17-13.33-3.16-6.38-2.48-12.22-.17-17.84a59.38,59.38,0,0,0,4.17-11.5c3.8-7.18-1.39-10.65-8.5-13.33-2.34-2.87-5.59-4.2-10.33-3.33-8.47-.59-15.66-2.45-21.5-5.67-11.8-6.44-23.32-15-34.67-24.67l-17.33-9.83L852.22,86.54c-10.61-5.1-20.77-10.07-26-13.5-9.13-2.92-11.45-2-1.67,5.66a98,98,0,0,1,15.84,12.67c8.69,8.21,19.78,18.16,21.33,21.17,4.87,8.87,7.42,15.31,13.17,20,3.7,5.93,6,11.18,11,12.66l20.83,18.67c12.62,13.92,25.58,26.9,32.83,39.33,6.42,11.84,13.85,22.31,15.5,29.34,9.18,25.77,15.52,51.44,18.5,77,.65,12.21,1.27,23.78,1.84,34.5-.43,19.11,1,40.54,3.5,63.33,1.68,4.16-1.33,5.48-5.8,5.92-4,1.58-7.3,1.77-10,.62-4.64-2.54-10.82.53-17,3.63-11.57,6.62-27,12.8-43.37,18.87-1.05,8.39-2.64,15.44.37,20.75,1.21,2.89,5.49,5.58,10.13,8.25,4.33,2.23,9.15,1.75,14.25-.37l18-5.38a125.23,125.23,0,0,0,19.62-7c8.11-5.33,7.71-.7,5.88,5.63l-3.5,13.62c-1,11-5.8,25.25-11.38,40.13-2.76,8.19-6.41,14.51-11.37,18.12A33.28,33.28,0,0,0,934.84,546c-1.38,4.22-2.74,8.61-4.87,8.62-3,.89-4,2.92-4.13,5.5-2.92,3.58-5.23,2.23-7.12-2.37.68-4.78-2.38-9.27-7.38-13.63l-16.12-25.5c-5.33-9.13-10-18.16-12.88-27a197.18,197.18,0,0,0-11.75-32L850.47,409l-6.38-22.38c.11-4.43,3.65-5.21,8.25-4.87,6.22-.3,13.36-4.11,20.75-8.88,8.75.14,15.79-8.3,22.63-17.75,3.6-2.75,5.71-5.21,3.75-6.87a5.06,5.06,0,0,1,1.75-5.63c3.84-3,5.25-8.07,6-13.75a86.63,86.63,0,0,0,6.62-20.37c2-6.8.63-11.92-2.5-21.75a54.17,54.17,0,0,0-3.75-18.63c-.09-5.35,1-5.92,3.63.13,1.63,4,3.2,7.93,4.75,11.75,2.75,4.41,4.67,3.41,2.75-1.63-1.25-7.62-4.82-12.64-9.38-18.12a52.25,52.25,0,0,1-9-16.25c.14-4.76-2-8.56-4.62-12.13-6.57-10.33-12.91-22.7-19.13-36.25l-12.25-23c-3.32-3-7.66-3.49-13-1.62-2.54.94-3.6.42-2.87-1.88,1.67-3,.43-4.94-1.5-6.62-10.15-7.81-17.5-16.58-22.25-26.25-9.09-6.67-17.58-13.12-22.75-18.25-11.43-11.52-22.61-21.5-33.13-27.5-4.48-4.21-10.67-7.72-17.75-10.88a190.18,190.18,0,0,1-20.75-10.37,35.59,35.59,0,0,0-13.25-6.75,46.7,46.7,0,0,1-14.87-6.38c-1.54-2.25-6.6-5.33-11.5-8.37-5.1-2.48-9.45-2.41-13.13,0,.8,1.48.82,2.43-1.5,1.75-1.84-.81-3.43-1.14-3.87.62-.38,1.33-1.39,2-3.5,1.38-6.07,2.52-3.28,4.79,2.25,7a49.39,49.39,0,0,1,18.62,19.37A66.37,66.37,0,0,1,700,98.41c1.32,3.53,1.7,6.11-1,5.5-3.14,0-4.51,1.59-4.5,4.5-.46,5.73-5.62,3.45-10.88,1-5.82-2.34-14.39-4.28-23.62-6.12L613.09,80.66A34.26,34.26,0,0,0,598.47,76a31.32,31.32,0,0,1-12.25-6.63c-2.51-4.14-6.52-6.7-11.25-8.5l-11.63-7c-7.64-1.39-7.18,1.61-3,6.63L569,67.79c2.72,4.06,1.07,3.95-2.63,1.87l-10.5-6c-4.1-1.37-5,.92-5.75,3.38-1.76,3.24.58,5.29,5.38,6.62l10.75,4.63a37.41,37.41,0,0,1,13.12,11.15l4.88,5.6a15.26,15.26,0,0,0,11.25,4.62c5.42,1.56,9,6.1,11.62,12,2.38,1.78,3.78,3.66,3,5.75-1.14,2.87-.12,5.28,2.38,7.38,4,8.2,8.37,18.35,11.12,19.5,11,15,19.91,30,23.91,44.75,7.34,22.12,12.87,47.11,17.34,73.75.68,5.58,2.13,10.26,6.5,11.5,3.34,1.39,5.81,3.66,6.38,7.87l2.12,26.5c2.3,22.23,3.87,43,1.88,57-4.6,26.31-9.27,51.31-14.5,66.25-3.8,9.69-6.61,19.17-6.5,28,.54,3.67.78,6.94-1.88,6.38-3.68,2.65-.17,4.47,4.75,6.12a60.55,60.55,0,0,1,16.5,8.63c14.53,9.95,28.24,18.43,39.75,23,8.1,2.89,15.83,5.27,21.63,5,5.23.41,6.68-1.83,5.37-6-2.26-1.51-4.59-2.36-7.12-1.5-2.66-1.44-3-2.74,1.37-3.75,2.75.73,3.88-.14,2.38-3.63,1.73-3.87,4.15-3.35,6.75-1.75l15.37,5.38c3.68.35,5-.59,3.63-3-4.18-2.48-7.58-6.85-10.75-11.75-2.7-8.17-9.37-18-16.25-28-5.09-3.21-6.66-9.43-7.25-16.5l-8.75-23a25.23,25.23,0,0,1-1.25-22c3.67-9.07,14.27-6.6,25.25-3.5a65.85,65.85,0,0,1,17,.5c6.6-.28,12.86.09,17.5,3.5,4,2.67,8.21,4.71,12.75,4.5,5.91-.89,7,.75,9,6,5.64,9.44,10.4,19,11.87,24,10.79,23.27,18.5,45.08,19.57,63.75,1.75,6.1,1.45,9.75-2.32,9.25-2.09,2-5.09,3.29-8.5,4.25-5.13.88-5.59,2.16-.75,3.87,1.91.65,3.08,1.78,3,3.75,1.36,2.83,3.35,3.44,6.13,1.38,4-1.51,6.49-1.42,6.62,1.12.39,2.34,1.45,3.76,4,3.13a59.36,59.36,0,0,1,9.38.12,22.57,22.57,0,0,1,.5-2.37c.92-3.25,1.33-3.25,1.25,0l.12,3.37,4.25.13c4.08-.74,6.39,1.39,7.63,5.25a46.27,46.27,0,0,1,5.67,10.5c4.32,6.83,5.88,14.36,5.66,22.33-2.15,10.92-6.12,19.83-13.33,25.17-5.35,4.78-9.75,9.84-11.67,15.66l-2.66,11.5c-1.08,6.12,2.45,4.84,7.16,1.67a266.31,266.31,0,0,0,22-15.83c6.25-3.24,11.92-3.49,16.84.16,3.55,4.71,6.94,8.57,10,10.84,3.29,2.26,3,4.65-.67,7.16a5.64,5.64,0,0,0-2.5,5.84c1.83,2.43.82,4-1.67,5a8,8,0,0,0-3.83,3.16c-.31,3.71,3.41,4.34,9.5,3.17,2.4-1.33,4.35-2.76,5-4.5,4.74-2.65,7.73-2.64,8.33,1a157.81,157.81,0,0,0,13.34,19.83c2.92,4.48,2.29,9.34-1.17,14.5a179,179,0,0,0-12,17.84c-1.76,6.43,3.74,6.11,11.17,4l11.83-6.5c3.15-3.36,4.18-2.12,3.5,2.83.43,2.63,1.47,3.07,3.17,1.17,2.25-2.24,2.77-1.33,2.16,1.66l.84,6.17c1.92,3.11,3.58,3.23,4.66-1.17,0-5.82.05-11.54,1.17-14.16a65.87,65.87,0,0,1,5.17-15.84c6.35-10.63,13.22-22.39,16.5-26.16a250.69,250.69,0,0,1,19.33-29.67c3-4.19,2.82-6.12-.5-5.83-4.12,1.35-2.25-1.42.33-4.67,4.37-4.42,1.14-6.36-2.5-8.17a144.36,144.36,0,0,0-23.83-7,34.15,34.15,0,0,1-14.83-6.66c-4.66-2.36-8.16-2.68-10.17-.34-3.33,3.21-7.1,2.81-11.17.17l-6.5-4.5c-4-2,1.42-12.08,8.17-9.83a16.83,16.83,0,0,1,6,3.16c2.1,2.63,4.36,3.84,6.83,3.17a11.38,11.38,0,0,1,5.67,1.33,238.19,238.19,0,0,0,27.5,10.84l6.67,3.5c.74,2.18,1.88,3.58,4,3,2.07-.2,4-.22,4.83.66,1.82,2.61,7.49,3.17,14.83,2.84,4.4.14,7.87,1.27,10.34,3.5,3.41,5.63,1.81,10.59-1.5,15.33-3.42,4-2.92,2.14-1.17-1.5.19-4.77-3.64-3.25-6.5-.5a111.8,111.8,0,0,1-5.67,14.17c-4.28,9.34-12.28,20.11-21.5,31.33A29.38,29.38,0,0,0,984.22,658c.46,3.4,3.13,3.48,7.5,1,4.27-2,4.44-.91,1.83,2.16-1.38,1.74-2.33,3.39-2.33,4.84-1.42,4.74.56,3.7,3.33,1.33h4.17c2.2,1.16,3.5.22,3.5-3.83,6.66-12.26,19.67-21.68,30.67-32,9.31-7.54,17.17-15.25,22-23.34,5.07-7.09,10.1-13.23,15-16a43.33,43.33,0,0,1,16.16-9.33c6.63-5,14-10.37,16.84-13.5l13-11.33c7.13-5,10.31-11.35,9.83-19C1126.37,531.59,1122.23,527.51,1116.05,524.87ZM833.34,337.41c-2.36,2.65-5.7,4-10,4.13H807.72a46.72,46.72,0,0,1-13.5,1c-1.55-1.61-4.5-2.21-8.38-2.13a80.67,80.67,0,0,0-18.12-.25,13.55,13.55,0,0,1-7.88-2c-3.13-1.07-2.53-1.81,0-2.37,2.9-.53,6.51-.31,11.25,1.12,5.46,1.77,10.55,2.73,14.38.88,1.48-1.74.74-2.52-1.88-2.5a60.49,60.49,0,0,1-15.5-.88c-.78-1.26-4.54-1.68-8.25-2.12-4-1.24-9.59-.77-15.5,0-3.65-1-6.13-2.64-7.37-5-2.19-3-3.4-14-4.63-24.88-.27-2.76-1-10.57-1.75-17.75.1-6.41-1.71-9-4.37-9.87-3.17-.89-5.11-14.24-7.13-26.75-2.15-6.43-3.24-15.31-3.87-25.25,1.13-2.86.81-6.24-.88-10.13L709.47,194c-.23-4,.33-12.14.87-20.25,2.65-6.4,6.9-9.6,14.5-6.13a18.23,18.23,0,0,1,6.75,8.75c1.65,2,3.36,3.74,6.38,2.75,5.47-1.8,10.17-1.22,14.25,1.25a48.33,48.33,0,0,0,15.25,8.38c2.89,2.1,5.49,2.71,7.25-.88,3-4.7,6.84-7.9,14.62-3.87,3.2,5.44,6.37,11.41,9.75,11.5,3.27,1.42,5.09,4.24,4.88,9a6.35,6.35,0,0,0,4.37,6l10.25,5.87a36,36,0,0,0,10.75,4.25c4.41,1.75,10.07,5,8.31-.37-.85-3.23,2-3.46,6.07-2.63a6.83,6.83,0,0,1,5.87,2.5A107.47,107.47,0,0,1,864,238.41c3.59,3.26,5.45,9.84,6.62,17.75,3.09,7.57,4.89,15.19,2.38,23l-5.38,17.13c-3.05,8.34-6.48,16.35-12.62,21.87C850.33,323.94,842.55,330.5,833.34,337.41Z" transform="translate(-27.55 -45.95)"/><path class="cls-1" d="M1469.39,347.2l-13.17-14.5c-4.34-4.3-8.67-12.68-13-21.5a39.51,39.51,0,0,0-9-14.33c-2.39-2.74-4.65-4.08-6.83-4.5-2-.56-3-.11-2.34,2.33l6.5,4c4.74,5,2.63,5.18-5.33,1.17-3.57-.91-6.91-3.78-10.17-7.33-2.08-4.51-5.73-6.71-10-8-6.72-3-14.67-4.93-23.16-6.34-9,.16-15.71-.58-20.17-2.16-3.25-1.47-6.42-2.3-9.33-1-5.85,1.84-15.38-1.59-25.5-6.5l-23.67-10.17c-5.58-1.34-8.56-3.7-9.17-7a36.5,36.5,0,0,0-14.83-2.33l-24.33-10.5a360.48,360.48,0,0,0-54.17-14.17c-5.69-.81-12.9-.71-20.83-.17-3.69.86-3.27-1.93-1-6.33v-6.33l-2.5.5-18,.33c-9.48,0-14.34-3.2-17-8-3.39-5.55-9-7.61-15.67-8-4.79,1.1-10.87-4-17-9.33-3.92-5.1-14.45-4.24-24.67-3.67-7.73,1.36-13.63-3.66-19.5-8.83-3-3.36-7-4.73-11.33-5.67-10.34-1-12.45,4.23-13.17,10.5-.12,3.33.4,6.38,2.34,8.83a38.18,38.18,0,0,0,13.16,11.67c4.82,2.23,8.3,6.55,10.34,13.17l5,12.16c4.39,5.36,9.28,6.89,14.83,3.34,3.2-3.23,6.53-5.43,10.33-3.34,2.69,1.31,4.68,3,11.34,2.17,5.3-1,10-.48,14,2.17,4,1.41,4.58,4.19,1.33,8.5-3.48,6.55-7.2,12.44-11.5,16.66-2.27,2.83-3.36,5.63-1.33,8.34,1.91,1.66,1.09,4-.84,6.66a23.45,23.45,0,0,0-3.16,14.5c-.67,4.52-2,8.11-5.17,9.17-2.72,5.65-1.26,6.48,3.5,3.5a35.32,35.32,0,0,0,12.17-11.33c4-4.48,8.82-5.46,14-5a21.56,21.56,0,0,0,10.5-2.84l14.83-9.16c6.77-2.58,8.48-1.43,5.5,3.16-1.7,2.59-.36,4.07,7.5,3.17l13.83-5.67c5.88-2.09,8-.68,9.67,1.17,4,1.2,7.24,1.56,9.67,1,3-.37,3.8.31.83,2.67l-7.67,6.83c-2.36,3.17-2.31,4.71.34,4.5,3.24-.62,3.31,1,0,5l-29.84,41.83c-6.3,14.87-10.71,28.7-9.33,39.34,1.59,5.57,1.08,8.59-3.5,6.66h-7.17c-7.19-.52-11.34,2.15-14.83,5.5-5.77,5-13.56,6.15-21.83,6.34-3.35.5-5.53,0-6.5-1.5-5.08-.71-5.33,1.32-4.17,4.16a15.64,15.64,0,0,0,2.17,11.17c3.74,4.88,7.65,9.82,8,13.17l7.16,14.25c7.33,6.63,11.59,15.1,13.34,25.08,1.34,8.34,2.72,16.73,1.5,20.83l6.66,48.67c2.67,11.34,5.62,21.81,10.67,25.83,4.13,4.14,9.81,5.73,16,6.5,4,.43,6.62-.71,6.5-4.66a18.91,18.91,0,0,1,4.5-6c2.68-1.9,5.25-2.1,7.67,0,4.24.46,5.73,0,1.16-2.34-1.1-2.11-1.45-4.06,0-5.66l14.67-10.17c5.81-3.39,5.23-2.17-.17,2.5-4.24,3.26-7.28,6.8-8.83,10.67.49,4.25,3.08,4.76,6.83,3.16a14.56,14.56,0,0,0,7.5-4.33c3.65-2.78,4.91-3,3.17-.17-2.13,3-1.35,4.27,3,3.34,3.87-.15,7.74-.29,7.83-2.84a7.21,7.21,0,0,1,5.84-4.66c3.23-2.12,4.36-.95,5,1,.67,2.78,3.45,2.45,7.33.5,2.25-1.38,3.82-1.58,3.67,1.16.13,2-.63,3.23-2.5,3.5-2.9,1.09-4.57,2.1.5,2.67l14.16-.5c6.81-.23,8.62-1,1.5-2.83a3,3,0,0,1,2.17-4c4-3.3,7.61,1.26,11.17,6.33,2.41,2.79,4.81,3.5,7.16,1.17s5.71-1.41,9.17.5l11.17,3.16a14.79,14.79,0,0,0,13.83-2c2.62-2.4,5.61-4.14,8.83,0,5.38,2.76,8.75,1.81,11.67,0,5.62-.72,8.63-1.8,9.5-3.16l4-4.17,13.33-7.33c17-7.8,31.12-15.54,41.5-23.17,1.73-2,3.33-1.88,4.84,0,2.75,2.23,4.69,1.05,6.33-1.33l9.67-12.5c7.83-5.48,15.7-11,19.16-16,4-2.42,4.86-4.68,3.17-6.84l-1.17-5,3.5-8.5,9.84-20.83a24.68,24.68,0,0,0,2.16-16.67,26.47,26.47,0,0,1-.33-12c.71-10.11-2.5-9.49-8.17-2.16l-7.33,13.66-11.83,26.67c-4.24,8.66-8.48,16.95-13,19.67-5.6,5.34-6.8,3.38-5.84-2.17l7.67-20.5,3.17-15.67c1.22-8.58-2.44-4.92-6.67.17l-10.33,20.83c-2.89,7.79-7,12.66-11.67,16-3.55,2.87-5,1.86-4.17-3.33l1-26.5c.49-3.86-.85-4.59-3.83-2.5-1.8,1.13-3.4,1.7-4.33.5-2-1.35-3.52-.51-4.84,1.5l-4.66,11.33c-2.92,7-5.84,14.1-8.84,17l-8,7.67-8.16,6.33c-1.76,4.53-1.27,5.71,2.83,1.5,4.1-2,3.26-.37-.17,3.17-4.8,4.87-9.55,9.59-12.83,10.33-4,1.31-3.54-1.56-1-6.5l3.83-16.33c2.25-3.22,2.89-5.74,2.17-7.67l-1-4.83c1-2.84-.25-5-4.67-4.5-.44-2.39-2.39-2.1-5.16-.33-1.71,2.53-2.82,5.15-2.34,8-.52,4.27-2.71,5.67-6.66,4a19.49,19.49,0,0,0-10.5,8.16c-4.49,3.56-5.07,8-4.17,12.67-1.87,12.2-15.68,11.3-28.33,11.67a128,128,0,0,1-24.17-2.67c-6.51-.9-11.56-2.72-15.33-5.33-2.51-1.12-2.15-2.23.66-3.34,6.29-2.56,4.44-3.6-3.5-3.5-3.86,1.16-8.74.75-13.83,0-3-2.81-7.69-2.59-12.67-1.83-4.52-.5-6.06-3.54-6.33-7.67a164,164,0,0,1,14.17-40.33l14-34,2.83-11.83c3.55-3.69,4.31-2.37,3,2.66l-2.67,7.67-5.5,12.83c-1.24,6,.32,4.27,2.34,1.34l6.33-14.5c2.64-5.82,5.15-11.34,7.5-16.5,5.87-10.06,12.52-18.5,20.17-24.84,3.14-1.44,5.64-1.49,6.16,2.67l7,14.5c.65,3.28,2.52,3.9,5,3.17,3.5.22,4.59-1.31,2.67-5l-2.67-5.84c-1.44-4.8-1.8-7.54,3.67.84a8.27,8.27,0,0,0,8.83,2.6c4.74-1.31,7.21-5.89,9-11.44,2.81-3.54,4.19-3.68,3.84.34l1.33,6.16c5.43,2.27,5.65-.16,4.67-3.66.08-2.72,1-3.86,3.33-2.5,2.58.21,4.15-.43,3-3.34,1.16-3.95,3-6.17,5.33-7,2.86-5,.93-5.65-3.5-4-2.89-.17-2-4.54-.83-9.33-.77-3.66,0-7.83,1.67-12.33l9-8.5c3.6-1.59,6.08-1.22,6.83,3.16l5.33,10.17c3,4,5.28,10.59,7.5,17.33,4.89,1.28,7.84,0,8.67-4-.49-6-1.19-12.43.33-15,1.48-2.3,2.14-4.62,1-7-2.12-2-3.68-5.11-5-8.66-2-5,.87-5.92,5.84-5.17a39.27,39.27,0,0,1,13.5,1.33c5.54.83,9.39,4.82,12.5,10.17a61.23,61.23,0,0,1,3.5,19.17c1.71,4.13-.26,7-2.5,9.83-.4,3.43.1,5.49,4.16,2,2.46-1.13,4-.68,4,2.17,4.62,1.92,7-1.05,8.34-6,.18-5.28,0-10.46,0-15.5q4.15-12.77,5.33-16.34c.75-3.91,3.29-4.47,6.5,0,2.19,4,4.55,7.33,7.5,8.67a19.22,19.22,0,0,1,6,12l.67,16.5c-.53,5.46,1.26,8.89,2.83,12.5,2.32,1.1,4.64,1.91,6.83.17,2-1.09,3.21-.28,3.84,1.66,2.07,1.66,3.27.73,4.16-1.16l2.67-7c3-3.35,5.34-2.73,7.33.33,2.9,2.93,5.88,4.37,9,3.33C1474.89,357.77,1472.47,352.66,1469.39,347.2Zm-115.5,128.09c.58-1.67,5.5-5.84,5.5-5.84,1.71-1.08,2-.64.91,1.25l-5.41,5.5S1353.3,477,1353.89,475.29Zm-76.5-165.59-8.5,5.34-4.5,4.33c-1,1.65-1.67,3.2.66,4,1.43,2.49.73,3.76-2.33,3.67a12.15,12.15,0,0,0-10,1.5l-22.5,11.16c-2.83.88-3.42,2.54-3.17,4.5,1.45,2.89,1.09,4.95-1.83,5.84-2.44,3-4.49,3.31-6.17,1-1.13-1.19-2.92-1-5.16,0-4.21,3.23-3.35.91-1.67-2.34,3-1,4.63-3.79,5.67-7.33a18.29,18.29,0,0,1,5.66-12.5,47.23,47.23,0,0,0,11.5-14.33c2.12-3.62,5-5.84,9.34-5.34a42.37,42.37,0,0,0,19.33-3.83l11.33-5.67c3.91-.86,5.73-.43,4,1.84a4.84,4.84,0,0,1,1.5,4.66C1281.68,307.81,1281.68,309.19,1277.39,309.7Z" transform="translate(-27.55 -45.95)"/></svg>